<svg width="113" height="28" viewBox="0 0 113 28" fill="none" xmlns="http://www.w3.org/2000/svg">
<path d="M10.22 22.3C8.3 22.3 6.6 22.01 5.12 21.43C3.66 20.85 2.52 19.95 1.7 18.73C0.88 17.51 0.47 15.96 0.47 14.08V1.81C0.47 1.59 0.55 1.4 0.71 1.24C0.87 1.08 1.06 0.999999 1.28 0.999999H7.16C7.38 0.999999 7.57 1.08 7.73 1.24C7.89 1.4 7.97 1.59 7.97 1.81V13.96C7.97 14.7 8.15 15.27 8.51 15.67C8.89 16.07 9.45 16.27 10.19 16.27C10.93 16.27 11.48 16.07 11.84 15.67C12.22 15.27 12.41 14.7 12.41 13.96V1.81C12.41 1.59 12.49 1.4 12.65 1.24C12.81 1.08 13 0.999999 13.22 0.999999H19.1C19.32 0.999999 19.51 1.08 19.67 1.24C19.83 1.4 19.91 1.59 19.91 1.81V14.08C19.91 15.96 19.5 17.51 18.68 18.73C17.86 19.95 16.72 20.85 15.26 21.43C13.8 22.01 12.12 22.3 10.22 22.3ZM23.5428 27.7C23.3228 27.7 23.1328 27.62 22.9728 27.46C22.8128 27.3 22.7328 27.11 22.7328 26.89V7.21C22.7328 6.99 22.8128 6.8 22.9728 6.64C23.1328 6.48 23.3228 6.4 23.5428 6.4H28.6428C28.8628 6.4 29.0528 6.48 29.2128 6.64C29.3728 6.8 29.4528 6.99 29.4528 7.21V8.11C29.9128 7.53 30.5028 7.05 31.2228 6.67C31.9628 6.29 32.8528 6.1 33.8928 6.1C34.7728 6.1 35.5828 6.23 36.3228 6.49C37.0628 6.73 37.7128 7.13 38.2728 7.69C38.8528 8.23 39.3128 8.94 39.6528 9.82C39.9928 10.7 40.1928 11.77 40.2528 13.03C40.2728 13.47 40.2828 13.86 40.2828 14.2C40.2828 14.54 40.2728 14.94 40.2528 15.4C40.2128 16.58 40.0228 17.61 39.6828 18.49C39.3428 19.35 38.8828 20.06 38.3028 20.62C37.7428 21.18 37.0828 21.6 36.3228 21.88C35.5828 22.16 34.7728 22.3 33.8928 22.3C33.0528 22.3 32.2928 22.16 31.6128 21.88C30.9328 21.6 30.3628 21.14 29.9028 20.5V26.89C29.9028 27.11 29.8228 27.3 29.6628 27.46C29.5028 27.62 29.3128 27.7 29.0928 27.7H23.5428ZM31.4028 16.93C31.7828 16.93 32.0728 16.86 32.2728 16.72C32.4728 16.58 32.6128 16.38 32.6928 16.12C32.7928 15.86 32.8628 15.55 32.9028 15.19C32.9628 14.53 32.9628 13.87 32.9028 13.21C32.8628 12.85 32.7928 12.54 32.6928 12.28C32.6128 12.02 32.4728 11.82 32.2728 11.68C32.0728 11.54 31.7828 11.47 31.4028 11.47C31.0428 11.47 30.7528 11.54 30.5328 11.68C30.3128 11.82 30.1528 12.02 30.0528 12.28C29.9728 12.54 29.9228 12.85 29.9028 13.21C29.8828 13.65 29.8728 14.02 29.8728 14.32C29.8728 14.6 29.8828 14.97 29.9028 15.43C29.9228 15.75 29.9828 16.02 30.0828 16.24C30.2028 16.46 30.3628 16.63 30.5628 16.75C30.7828 16.87 31.0628 16.93 31.4028 16.93ZM46.1002 22C45.8802 22 45.6902 21.92 45.5302 21.76C45.3702 21.6 45.2902 21.41 45.2902 21.19V7.45H40.3102C40.0902 7.45 39.9002 7.37 39.7402 7.21C39.5802 7.05 39.5002 6.86 39.5002 6.64V1.81C39.5002 1.59 39.5802 1.4 39.7402 1.24C39.9002 1.08 40.0902 0.999999 40.3102 0.999999H57.8902C58.1102 0.999999 58.3002 1.08 58.4602 1.24C58.6202 1.4 58.7002 1.59 58.7002 1.81V6.64C58.7002 6.86 58.6202 7.05 58.4602 7.21C58.3002 7.37 58.1102 7.45 57.8902 7.45H52.9102V21.19C52.9102 21.41 52.8302 21.6 52.6702 21.76C52.5102 21.92 52.3202 22 52.1002 22H46.1002ZM62.9863 22.3C61.8463 22.3 60.8363 22.09 59.9563 21.67C59.0763 21.25 58.3863 20.68 57.8863 19.96C57.4063 19.24 57.1663 18.43 57.1663 17.53C57.1663 16.07 57.7563 14.93 58.9363 14.11C60.1363 13.27 61.7363 12.68 63.7363 12.34L66.9163 11.83V11.8C66.9163 11.28 66.8663 10.9 66.7663 10.66C66.6863 10.42 66.4363 10.3 66.0163 10.3C65.7363 10.3 65.5063 10.36 65.3263 10.48C65.1663 10.58 64.9863 10.73 64.7863 10.93C64.5663 11.15 64.2863 11.26 63.9463 11.26H58.8463C58.6463 11.26 58.4763 11.2 58.3363 11.08C58.2163 10.96 58.1663 10.8 58.1863 10.6C58.2063 10.22 58.3663 9.78 58.6663 9.28C58.9663 8.76 59.4263 8.26 60.0463 7.78C60.6863 7.3 61.4963 6.9 62.4763 6.58C63.4763 6.26 64.6763 6.1 66.0763 6.1C67.4363 6.1 68.6163 6.25 69.6163 6.55C70.6363 6.83 71.4763 7.25 72.1363 7.81C72.7963 8.35 73.2863 9.03 73.6062 9.85C73.9463 10.65 74.1163 11.56 74.1163 12.58V21.19C74.1163 21.41 74.0363 21.6 73.8763 21.76C73.7163 21.92 73.5263 22 73.3063 22H68.0563C67.8363 22 67.6463 21.92 67.4863 21.76C67.3263 21.6 67.2463 21.41 67.2463 21.19V20.35C66.9663 20.75 66.6063 21.1 66.1663 21.4C65.7463 21.68 65.2663 21.9 64.7263 22.06C64.1863 22.22 63.6063 22.3 62.9863 22.3ZM65.0563 17.86C65.4563 17.86 65.7963 17.78 66.0763 17.62C66.3763 17.46 66.6063 17.21 66.7663 16.87C66.9263 16.51 67.0063 16.07 67.0063 15.55V15.52L65.2363 15.91C64.7163 16.03 64.3663 16.19 64.1863 16.39C64.0063 16.59 63.9163 16.8 63.9163 17.02C63.9163 17.16 63.9563 17.3 64.0363 17.44C64.1363 17.56 64.2663 17.66 64.4263 17.74C64.6063 17.82 64.8163 17.86 65.0563 17.86ZM83.9884 22.3C82.5484 22.3 81.3184 22.16 80.2984 21.88C79.2984 21.58 78.4784 21.21 77.8384 20.77C77.2184 20.31 76.7584 19.84 76.4584 19.36C76.1584 18.86 75.9984 18.41 75.9784 18.01C75.9584 17.79 76.0184 17.6 76.1584 17.44C76.3184 17.28 76.4984 17.2 76.6984 17.2H81.9184C81.9384 17.2 81.9584 17.2 81.9784 17.2C81.9984 17.2 82.0184 17.2 82.0384 17.2C82.2984 17.22 82.5284 17.31 82.7284 17.47C82.9484 17.61 83.1684 17.75 83.3884 17.89C83.6284 18.03 83.8984 18.1 84.1984 18.1C84.3584 18.1 84.5084 18.06 84.6484 17.98C84.8084 17.9 84.8884 17.79 84.8884 17.65C84.8884 17.47 84.8284 17.31 84.7084 17.17C84.6084 17.03 84.3384 16.89 83.8984 16.75C83.4784 16.59 82.7684 16.42 81.7684 16.24C80.8484 16.06 79.9684 15.78 79.1284 15.4C78.2884 15.02 77.5984 14.49 77.0584 13.81C76.5384 13.13 76.2784 12.27 76.2784 11.23C76.2784 10.37 76.5684 9.55 77.1484 8.77C77.7284 7.99 78.5784 7.35 79.6984 6.85C80.8384 6.35 82.2284 6.1 83.8684 6.1C85.1084 6.1 86.2084 6.24 87.1684 6.52C88.1284 6.8 88.9384 7.16 89.5984 7.6C90.2784 8.04 90.7984 8.51 91.1584 9.01C91.5184 9.51 91.7084 9.97 91.7284 10.39C91.7484 10.61 91.6884 10.8 91.5484 10.96C91.4084 11.12 91.2484 11.2 91.0684 11.2H86.3284C86.2884 11.2 86.2384 11.2 86.1784 11.2C86.1184 11.2 86.0684 11.2 86.0284 11.2C85.7484 11.2 85.4984 11.13 85.2784 10.99C85.0584 10.83 84.8384 10.68 84.6184 10.54C84.3984 10.38 84.1384 10.3 83.8384 10.3C83.6984 10.3 83.5584 10.35 83.4184 10.45C83.2984 10.53 83.2384 10.64 83.2384 10.78C83.2384 10.94 83.2984 11.1 83.4184 11.26C83.5384 11.4 83.8284 11.54 84.2884 11.68C84.7484 11.8 85.4984 11.94 86.5384 12.1C87.9784 12.3 89.1284 12.67 89.9884 13.21C90.8484 13.75 91.4584 14.37 91.8184 15.07C92.1984 15.77 92.3884 16.46 92.3884 17.14C92.3884 18.2 92.0584 19.12 91.3984 19.9C90.7584 20.68 89.8084 21.28 88.5484 21.7C87.3084 22.1 85.7884 22.3 83.9884 22.3ZM95.1737 22C94.9537 22 94.7637 21.92 94.6037 21.76C94.4437 21.6 94.3637 21.41 94.3637 21.19V1.51C94.3637 1.29 94.4437 1.1 94.6037 0.939999C94.7637 0.779999 94.9537 0.699999 95.1737 0.699999H100.424C100.644 0.699999 100.834 0.779999 100.994 0.939999C101.154 1.1 101.234 1.29 101.234 1.51V11.23L103.874 6.91C103.914 6.83 104.004 6.73 104.144 6.61C104.284 6.47 104.484 6.4 104.744 6.4H110.804C111.004 6.4 111.174 6.47 111.314 6.61C111.454 6.75 111.524 6.92 111.524 7.12C111.524 7.2 111.504 7.29 111.464 7.39C111.444 7.47 111.414 7.53 111.374 7.57L107.264 13.42L112.124 20.89C112.204 21.01 112.244 21.14 112.244 21.28C112.244 21.48 112.174 21.65 112.034 21.79C111.894 21.93 111.724 22 111.524 22H105.224C104.924 22 104.704 21.93 104.564 21.79C104.424 21.63 104.334 21.53 104.294 21.49L101.234 16.39V21.19C101.234 21.41 101.154 21.6 100.994 21.76C100.834 21.92 100.644 22 100.424 22H95.1737Z" fill="#0F172A"/>
</svg>
